<svg width="14" height="13" viewBox="0 0 14 13" fill="none" xmlns="http://www.w3.org/2000/svg">
<path d="M11.7952 2.5H9.79525V1.83333C9.79525 1.47971 9.65477 1.14057 9.40472 0.890524C9.15467 0.640476 8.81554 0.5 8.46191 0.5H5.79525C5.44163 0.5 5.10249 0.640476 4.85244 0.890524C4.60239 1.14057 4.46191 1.47971 4.46191 1.83333V2.5H2.46191C1.93148 2.5 1.42277 2.71071 1.0477 3.08579C0.672628 3.46086 0.461914 3.96957 0.461914 4.5V10.5C0.461914 11.0304 0.672628 11.5391 1.0477 11.9142C1.42277 12.2893 1.93148 12.5 2.46191 12.5H11.7952C12.3257 12.5 12.8344 12.2893 13.2095 11.9142C13.5845 11.5391 13.7952 11.0304 13.7952 10.5V4.5C13.7952 3.96957 13.5845 3.46086 13.2095 3.08579C12.8344 2.71071 12.3257 2.5 11.7952 2.5ZM5.79525 1.83333H8.46191V2.5H5.79525V1.83333ZM12.4619 10.5C12.4619 10.6768 12.3917 10.8464 12.2667 10.9714C12.1416 11.0964 11.9721 11.1667 11.7952 11.1667H2.46191C2.2851 11.1667 2.11553 11.0964 1.99051 10.9714C1.86549 10.8464 1.79525 10.6768 1.79525 10.5V6.76L4.91525 7.83333C4.98603 7.84294 5.05779 7.84294 5.12858 7.83333H9.12858C9.20088 7.832 9.27265 7.82078 9.34191 7.8L12.4619 6.76V10.5ZM12.4619 5.35333L9.02191 6.5H5.23525L1.79525 5.35333V4.5C1.79525 4.32319 1.86549 4.15362 1.99051 4.0286C2.11553 3.90357 2.2851 3.83333 2.46191 3.83333H11.7952C11.9721 3.83333 12.1416 3.90357 12.2667 4.0286C12.3917 4.15362 12.4619 4.32319 12.4619 4.5V5.35333Z" fill="black"/>
</svg>
