<svg width="14" height="15" viewBox="0 0 14 15" fill="none" xmlns="http://www.w3.org/2000/svg">
<path d="M13.7959 6.83341C13.7978 6.36352 13.6754 5.90147 13.4413 5.49407C13.2071 5.08666 12.8695 4.74836 12.4626 4.51341C12.4726 4.39807 12.4726 4.28208 12.4626 4.16674C12.4626 3.63631 12.2518 3.1276 11.8768 2.75253C11.5017 2.37746 10.993 2.16674 10.4626 2.16674H10.3426C10.2315 1.85895 10.0467 1.5831 9.80425 1.36338C9.5618 1.14365 9.26914 0.986767 8.95194 0.90648C8.63475 0.826193 8.30269 0.824956 7.98491 0.902878C7.66712 0.980799 7.3733 1.1355 7.12922 1.35341C6.88514 1.1355 6.59133 0.980799 6.27354 0.902878C5.95575 0.824956 5.6237 0.826193 5.3065 0.90648C4.9893 0.986767 4.69664 1.14365 4.45419 1.36338C4.21174 1.5831 4.02691 1.85895 3.91589 2.16674H3.79589C3.26546 2.16674 2.75675 2.37746 2.38167 2.75253C2.0066 3.1276 1.79589 3.63631 1.79589 4.16674C1.78585 4.28208 1.78585 4.39807 1.79589 4.51341C1.41753 4.72727 1.09718 5.03037 0.862715 5.39633C0.628254 5.76228 0.486793 6.17999 0.450646 6.6131C0.414499 7.04622 0.48476 7.4816 0.655315 7.88136C0.825869 8.28111 1.09155 8.63312 1.42922 8.90674C1.21074 9.31425 1.10196 9.77157 1.11358 10.2338C1.12521 10.6961 1.25682 11.1473 1.4955 11.5433C1.73419 11.9394 2.07175 12.2665 2.47504 12.4927C2.87834 12.7189 3.33351 12.8363 3.79589 12.8334H3.91589C4.02691 13.1412 4.21174 13.4171 4.45419 13.6368C4.69664 13.8565 4.9893 14.0134 5.3065 14.0937C5.6237 14.174 5.95575 14.1752 6.27354 14.0973C6.59133 14.0194 6.88514 13.8647 7.12922 13.6467C7.3733 13.8647 7.66712 14.0194 7.98491 14.0973C8.30269 14.1752 8.63475 14.174 8.95194 14.0937C9.26914 14.0134 9.5618 13.8565 9.80425 13.6368C10.0467 13.4171 10.2315 13.1412 10.3426 12.8334H10.4626C10.9221 12.8305 11.3731 12.7089 11.7718 12.4804C12.1705 12.2518 12.5034 11.9241 12.7382 11.529C12.9729 11.134 13.1016 10.6849 13.1117 10.2255C13.1218 9.76603 13.013 9.31176 12.7959 8.90674C13.1068 8.65778 13.3581 8.34232 13.5311 7.98353C13.7042 7.62475 13.7946 7.23175 13.7959 6.83341ZM6.46256 5.20008C6.31735 5.11703 6.16576 5.04569 6.00922 4.98674C5.84125 4.93016 5.65768 4.94263 5.4989 5.02139C5.34012 5.10016 5.21913 5.23877 5.16255 5.40674C5.10598 5.57471 5.11844 5.75828 5.1972 5.91706C5.27597 6.07584 5.41458 6.19683 5.58255 6.25341C5.83918 6.34619 6.06116 6.51547 6.21853 6.73841C6.3759 6.96134 6.46107 7.2272 6.46256 7.50008V8.53341C6.31735 8.45036 6.16576 8.37903 6.00922 8.32008C5.84125 8.2635 5.65768 8.27596 5.4989 8.35473C5.34012 8.43349 5.21913 8.57211 5.16255 8.74008C5.10598 8.90805 5.11844 9.09161 5.1972 9.2504C5.27597 9.40918 5.41458 9.53016 5.58255 9.58674C5.83918 9.67952 6.06116 9.8488 6.21853 10.0717C6.3759 10.2947 6.46107 10.5605 6.46256 10.8334V12.1667C6.46256 12.3436 6.39232 12.5131 6.26729 12.6381C6.14227 12.7632 5.9727 12.8334 5.79589 12.8334C5.66691 12.8326 5.54095 12.7943 5.43327 12.7233C5.32558 12.6523 5.24081 12.5516 5.18922 12.4334C5.30101 12.3678 5.40795 12.2943 5.50922 12.2134C5.57663 12.1574 5.63235 12.0886 5.67319 12.0111C5.71403 11.9335 5.73919 11.8486 5.74724 11.7614C5.75528 11.6741 5.74606 11.5861 5.72009 11.5023C5.69412 11.4186 5.65192 11.3408 5.59589 11.2734C5.53986 11.206 5.4711 11.1503 5.39353 11.1094C5.31597 11.0686 5.23112 11.0434 5.14384 11.0354C5.05655 11.0273 4.96853 11.0366 4.88481 11.0625C4.80109 11.0885 4.7233 11.1307 4.65589 11.1867C4.41517 11.3894 4.11055 11.5004 3.79589 11.5001C3.44227 11.5001 3.10313 11.3596 2.85308 11.1096C2.60303 10.8595 2.46255 10.5204 2.46255 10.1667C2.46574 9.91581 2.53969 9.67086 2.67589 9.46008C2.8255 9.48691 2.97722 9.5003 3.12922 9.50008C3.30603 9.50008 3.4756 9.42984 3.60063 9.30481C3.72565 9.17979 3.79589 9.01022 3.79589 8.83341C3.79589 8.6566 3.72565 8.48703 3.60063 8.36201C3.4756 8.23698 3.30603 8.16674 3.12922 8.16674C2.97175 8.16765 2.81557 8.13823 2.66922 8.08008C2.42945 7.9936 2.21949 7.84021 2.06422 7.63808C1.90894 7.43595 1.81485 7.19355 1.79311 6.93959C1.77136 6.68563 1.82286 6.43076 1.94151 6.20517C2.06016 5.97958 2.24098 5.79273 2.46255 5.66674C2.55729 5.7539 2.65996 5.83202 2.76922 5.90008C2.92305 5.98848 3.10569 6.01216 3.27697 5.9659C3.44826 5.91964 3.59415 5.80724 3.68255 5.65341C3.77096 5.49958 3.79464 5.31694 3.74838 5.14566C3.70212 4.97437 3.58971 4.82848 3.43589 4.74008C3.34204 4.68831 3.26377 4.61234 3.20922 4.52008C3.14759 4.41304 3.1197 4.28989 3.12922 4.16674C3.12922 3.98993 3.19946 3.82036 3.32448 3.69534C3.44951 3.57032 3.61908 3.50008 3.79589 3.50008C3.84233 3.4936 3.88945 3.4936 3.93589 3.50008C3.97118 3.60719 4.01349 3.71186 4.06255 3.81341C4.10611 3.8898 4.16434 3.95682 4.23391 4.01061C4.30347 4.0644 4.38299 4.1039 4.46789 4.12683C4.55278 4.14975 4.64137 4.15566 4.72856 4.1442C4.81574 4.13275 4.8998 4.10416 4.97589 4.06008C5.12369 3.97115 5.23127 3.82839 5.27603 3.66181C5.32078 3.49522 5.29923 3.31777 5.21589 3.16674C5.15995 3.06448 5.13018 2.94997 5.12922 2.83341C5.12922 2.6566 5.19946 2.48703 5.32448 2.36201C5.44951 2.23698 5.61908 2.16674 5.79589 2.16674C5.9727 2.16674 6.14227 2.23698 6.26729 2.36201C6.39232 2.48703 6.46256 2.6566 6.46256 2.83341V5.20008ZM11.5892 8.08008C11.4429 8.13823 11.2867 8.16765 11.1292 8.16674C10.9524 8.16674 10.7828 8.23698 10.6578 8.36201C10.5328 8.48703 10.4626 8.6566 10.4626 8.83341C10.4626 9.01022 10.5328 9.17979 10.6578 9.30481C10.7828 9.42984 10.9524 9.50008 11.1292 9.50008C11.2812 9.5003 11.4329 9.48691 11.5826 9.46008C11.7188 9.67086 11.7927 9.91581 11.7959 10.1667C11.7959 10.5204 11.6554 10.8595 11.4054 11.1096C11.1553 11.3596 10.8162 11.5001 10.4626 11.5001C10.1479 11.5004 9.84327 11.3894 9.60256 11.1867C9.46641 11.0736 9.29089 11.0191 9.11461 11.0354C8.93832 11.0516 8.77571 11.1373 8.66256 11.2734C8.5494 11.4096 8.49495 11.5851 8.51121 11.7614C8.52746 11.9376 8.61308 12.1003 8.74922 12.2134C8.8505 12.2943 8.95744 12.3678 9.06922 12.4334C9.01763 12.5516 8.93286 12.6523 8.82518 12.7233C8.7175 12.7943 8.59153 12.8326 8.46256 12.8334C8.28574 12.8334 8.11618 12.7632 7.99115 12.6381C7.86613 12.5131 7.79589 12.3436 7.79589 12.1667V10.8334C7.79737 10.5605 7.88254 10.2947 8.03991 10.0717C8.19728 9.8488 8.41926 9.67952 8.67589 9.58674C8.84386 9.53016 8.98247 9.40918 9.06124 9.2504C9.14 9.09161 9.15247 8.90805 9.09589 8.74008C9.03931 8.57211 8.91832 8.43349 8.75954 8.35473C8.60076 8.27596 8.41719 8.2635 8.24922 8.32008C8.09268 8.37903 7.94109 8.45036 7.79589 8.53341V7.50008C7.79737 7.2272 7.88254 6.96134 8.03991 6.73841C8.19728 6.51547 8.41926 6.34619 8.67589 6.25341C8.84386 6.19683 8.98247 6.07584 9.06124 5.91706C9.14 5.75828 9.15247 5.57471 9.09589 5.40674C9.03931 5.23877 8.91832 5.10016 8.75954 5.02139C8.60076 4.94263 8.41719 4.93016 8.24922 4.98674C8.09268 5.04569 7.94109 5.11703 7.79589 5.20008V2.83341C7.79589 2.6566 7.86613 2.48703 7.99115 2.36201C8.11618 2.23698 8.28574 2.16674 8.46256 2.16674C8.63937 2.16674 8.80894 2.23698 8.93396 2.36201C9.05898 2.48703 9.12922 2.6566 9.12922 2.83341C9.12827 2.94997 9.09849 3.06448 9.04256 3.16674C8.9982 3.24244 8.96922 3.32614 8.95728 3.41305C8.94534 3.49996 8.95067 3.58838 8.97296 3.67323C8.99526 3.75808 9.03408 3.83769 9.08721 3.90751C9.14034 3.97733 9.20672 4.03597 9.28255 4.08008C9.35864 4.12416 9.4427 4.15275 9.52989 4.1642C9.61707 4.17566 9.70566 4.16975 9.79056 4.14683C9.87545 4.1239 9.95497 4.0844 10.0245 4.03061C10.0941 3.97682 10.1523 3.9098 10.1959 3.83341C10.2458 3.72537 10.2881 3.61399 10.3226 3.50008C10.369 3.4936 10.4161 3.4936 10.4626 3.50008C10.6394 3.50008 10.8089 3.57032 10.934 3.69534C11.059 3.82036 11.1292 3.98993 11.1292 4.16674C11.1282 4.29743 11.0888 4.42494 11.0159 4.53341C10.9614 4.61992 10.8856 4.69106 10.7959 4.74008C10.6421 4.82848 10.5297 4.97437 10.4834 5.14566C10.4371 5.31694 10.4608 5.49958 10.5492 5.65341C10.6376 5.80724 10.7835 5.91964 10.9548 5.9659C11.1261 6.01216 11.3087 5.98848 11.4626 5.90008C11.5823 5.83535 11.6941 5.75705 11.7959 5.66674C12.0182 5.7905 12.2005 5.97529 12.3212 6.1993C12.4419 6.42331 12.496 6.67718 12.477 6.93093C12.4581 7.18468 12.367 7.42772 12.2144 7.63134C12.0618 7.83496 11.8541 7.99067 11.6159 8.08008H11.5892Z" fill="black"/>
</svg>
