<svg width="13" height="18" viewBox="0 0 13 18" fill="none" xmlns="http://www.w3.org/2000/svg">
<path d="M6.72656 11.25C7.52221 11.25 8.28527 10.9339 8.84788 10.3713C9.41049 9.80871 9.72656 9.04565 9.72656 8.25V3.75C9.72656 2.95435 9.41049 2.19129 8.84788 1.62868C8.28527 1.06607 7.52221 0.75 6.72656 0.75C5.93091 0.75 5.16785 1.06607 4.60524 1.62868C4.04263 2.19129 3.72656 2.95435 3.72656 3.75V8.25C3.72656 9.04565 4.04263 9.80871 4.60524 10.3713C5.16785 10.9339 5.93091 11.25 6.72656 11.25ZM5.22656 3.75C5.22656 3.35217 5.3846 2.97064 5.6659 2.68934C5.94721 2.40804 6.32874 2.25 6.72656 2.25C7.12439 2.25 7.50592 2.40804 7.78722 2.68934C8.06853 2.97064 8.22656 3.35217 8.22656 3.75V8.25C8.22656 8.64782 8.06853 9.02936 7.78722 9.31066C7.50592 9.59196 7.12439 9.75 6.72656 9.75C6.32874 9.75 5.94721 9.59196 5.6659 9.31066C5.3846 9.02936 5.22656 8.64782 5.22656 8.25V3.75ZM12.7266 8.25C12.7266 8.05109 12.6475 7.86032 12.5069 7.71967C12.3662 7.57902 12.1755 7.5 11.9766 7.5C11.7776 7.5 11.5869 7.57902 11.4462 7.71967C11.3056 7.86032 11.2266 8.05109 11.2266 8.25C11.2266 9.44347 10.7525 10.5881 9.90854 11.432C9.06463 12.2759 7.92004 12.75 6.72656 12.75C5.53309 12.75 4.3885 12.2759 3.54458 11.432C2.70067 10.5881 2.22656 9.44347 2.22656 8.25C2.22656 8.05109 2.14754 7.86032 2.00689 7.71967C1.86624 7.57902 1.67547 7.5 1.47656 7.5C1.27765 7.5 1.08688 7.57902 0.946233 7.71967C0.80558 7.86032 0.726563 8.05109 0.726562 8.25C0.727887 9.71047 1.26185 11.1203 2.22836 12.2152C3.19487 13.3101 4.52755 14.0149 5.97656 14.1975V15.75H4.47656C4.27765 15.75 4.08688 15.829 3.94623 15.9697C3.80558 16.1103 3.72656 16.3011 3.72656 16.5C3.72656 16.6989 3.80558 16.8897 3.94623 17.0303C4.08688 17.171 4.27765 17.25 4.47656 17.25H8.97656C9.17547 17.25 9.36624 17.171 9.50689 17.0303C9.64754 16.8897 9.72656 16.6989 9.72656 16.5C9.72656 16.3011 9.64754 16.1103 9.50689 15.9697C9.36624 15.829 9.17547 15.75 8.97656 15.75H7.47656V14.1975C8.92558 14.0149 10.2583 13.3101 11.2248 12.2152C12.1913 11.1203 12.7252 9.71047 12.7266 8.25Z" fill="black"/>
</svg>
